<?xml version="1.0" encoding="UTF-8"?>
<!DOCTYPE svg PUBLIC "-//W3C//DTD SVG 1.1//EN" "http://www.w3.org/Graphics/SVG/1.1/DTD/svg11.dtd">
<!-- Creator: CorelDRAW 2021 (64-Bit) -->
<svg xmlns="http://www.w3.org/2000/svg" xml:space="preserve" width="15.5781mm" height="7.7178mm" version="1.1" style="shape-rendering:geometricPrecision; text-rendering:geometricPrecision; image-rendering:optimizeQuality; fill-rule:evenodd; clip-rule:evenodd"
viewBox="0 0 419.02 207.59"
 xmlns:xlink="http://www.w3.org/1999/xlink"
 xmlns:xodm="http://www.corel.com/coreldraw/odm/2003">
 <defs>
  <style type="text/css">
   <![CDATA[
    .fil0 {fill:white}
   ]]>
  </style>
 </defs>
 <g id="Layer_x0020_1">
  <metadata id="CorelCorpID_0Corel-Layer"/>
  <g id="_1966373285840">
   <g>
    <g>
     <path class="fil0" d="M28.98 192.46c-2.44,13.09 -13.71,11.78 -26.36,8.37 -3.36,-0.91 -3.43,1.14 -0.49,3 9.35,5.92 21.08,4.96 35.4,-3.55 6.87,3.92 15.32,4.66 22.49,1.24 11.3,-5.37 15.18,-18.99 8.68,-30.42 -0.43,-0.75 -0.89,-1.47 -1.39,-2.17l0 -0c-2.36,-3.32 -1.47,-9.25 -0.22,-11.43 1.25,-2.18 16.9,-24.3 34.75,-23.99l45.44 -120.82c0,0 4.06,-10.2 -2.36,-12.7l-66.06 132.52c-7.12,14.27 -19.79,23.27 -35.65,25.65l0 0c-2.31,0.3 -4.59,0.95 -6.75,1.98 -11.3,5.38 -15.18,18.99 -8.68,30.42 0.37,0.65 0.77,1.28 1.19,1.89zm10.04 -27.82c-8.85,4.21 -11.89,14.88 -6.8,23.83 5.09,8.95 16.4,12.79 25.25,8.58 8.85,-4.21 11.89,-14.88 6.8,-23.83 -5.09,-8.95 -16.4,-12.79 -25.25,-8.58z"/>
     <path class="fil0" d="M99.39 104.12c-0.94,0.44 -1.61,1.19 -1.99,2.07l9.24 3.57c0.16,-1.04 -0.03,-2.18 -0.64,-3.24 -1.37,-2.41 -4.34,-3.49 -6.62,-2.4zm-2.28 3.1c-0.16,1.04 0.03,2.18 0.64,3.23 1.37,2.42 4.34,3.49 6.62,2.41 0.94,-0.45 1.61,-1.19 1.99,-2.07l-9.24 -3.57z"/>
    </g>
    <path class="fil0" d="M174.28 142.51l-66.75 0 4.63 -10.51 57.75 0 -33.31 -77.74 13.81 -35.53 64.4 151.36c5.49,12.9 10.3,21.32 14.74,25.2 4.41,3.85 10.56,5.98 18.49,6.47l0 5.26 -76.28 0 0 -5.26c7.68,-0.39 12.89,-1.65 15.62,-3.84 2.72,-2.19 4.04,-4.86 4.04,-8.03 0,-4.18 -1.9,-10.8 -5.69,-19.85l-11.43 -27.54z"/>
   </g>
   <path class="fil0" d="M288.24 5.9l10.2 0c30.03,0 52.88,3.39 68.51,10.21 15.67,6.82 28.26,18.2 37.77,34.13 9.55,15.93 14.31,34.33 14.31,55.16 0,28.01 -8.49,51.37 -25.48,70.18 -19.06,20.98 -48.08,31.45 -87.11,31.45l-18.19 0 0 -12.08c6.47,0.98 12.23,1.46 17.28,1.46 22.85,0 41.81,-8.04 56.93,-24.17 15.07,-16.08 22.6,-37.92 22.6,-65.47 0,-27.76 -7.53,-49.65 -22.6,-65.62 -15.12,-16.03 -34.48,-24.01 -58.14,-24.01 -4.96,0 -10.32,0.44 -16.07,1.34l0 -12.57z"/>
   <rect class="fil0" x="262.58" y="2.39" width="8.26" height="203.65"/>
  </g>
 </g>
</svg>
